<?xml version="1.0" encoding="UTF-8"?>
<svg id="Layer_2" xmlns="http://www.w3.org/2000/svg" version="1.1" xmlns:xlink="http://www.w3.org/1999/xlink" viewBox="0 0 128.8 160.9">
  <!-- Generator: Adobe Illustrator 29.1.0, SVG Export Plug-In . SVG Version: 2.1.0 Build 142)  -->
  <defs>
    <style>
      .st0 {
        fill: #edc9ff;
      }

      .st1 {
        fill: url(#linear-gradient);
      }
    </style>
    <linearGradient id="linear-gradient" x1="64.4" y1=".4" x2="64.4" y2="153.9" gradientTransform="translate(0 161.3) scale(1 -1)" gradientUnits="userSpaceOnUse">
      <stop offset="0" stop-color="#f2b79f"/>
      <stop offset=".2" stop-color="#facacf"/>
      <stop offset=".3" stop-color="#fed4e7"/>
      <stop offset=".5" stop-color="#f6cef1"/>
      <stop offset=".7" stop-color="#efcafb"/>
      <stop offset="1" stop-color="#edc9ff"/>
    </linearGradient>
  </defs>
  <g id="Layer_1-2">
    <g>
      <path class="st0" d="M82.5,4.2c-.2,1.4.6,2.9,1.9,3.6.5.2,1,.4,1.3.8,1,1.2-.7,3.1,0,4.4.5.9,1.8.9,2.7.4,1.4-.7,2.2-2.3,2.4-3.9s-.1-3.2-.5-4.7c-.3-1.2-.7-2.4-1.5-3.3-2.2-2.3-6.1-.1-6.4,2.7Z"/>
      <path class="st0" d="M111.6,15.5c.1.2.3.4.6.5.2.1.5.1.8.2.4,0,.9,0,1.3-.2.5-.3.6-1,.3-1.4-.7-1.1-3.7-.6-2.9.9Z"/>
      <path class="st0" d="M101.8,10.9c0,.9,1,1.6,1.9,1.6,1.6,0,3.5-2.2,1.9-3.5-1.4-1.1-3.9.2-3.8,1.9h0Z"/>
      <path class="st0" d="M109.2,4.2c.4.6,1.1.7,1.8.6,1.4-.2,3-1.1,3.4-2.5.2-1-.2-1.9-1.2-2.2-.9-.3-2,0-2.7.5-.9.7-2,2.5-1.3,3.6Z"/>
      <path class="st0" d="M57.2,21.6c.2.5.8.7,1.3.6,1-.2,1.8-1.9.6-2.5-1.1-.5-2.6.8-2,1.9h0Z"/>
      <path class="st0" d="M62.4,19.6c.5,0,.9-.1,1.3-.4s.7-.7.6-1.1c-.1-1.1-2-1.4-2.8-.8-.4.3-.5.9-.5,1.3,0,.8.6,1,1.3,1h0Z"/>
      <path class="st0" d="M52.6,3.2c-1.1.2-2.2.8-2.9,1.6-.3.3-.6.8-.5,1.3,0,.5.5.9,1,1s1,0,1.4,0c1.1-.3,2-.8,3-1.3.5-.3,1-.5,1.3-1,2-2.3-2.2-1.8-3.3-1.5Z"/>
      <path class="st0" d="M60.3,1.3c-.5.3-.9.8-.8,1.3,0,.6.7.9,1.2,1.1s1.1.3,1.6.6c.4.3.7.8,1.2.8.4,0,.7-.3.8-.7s0-.7-.1-1.1c-.6-1.6-2-3.1-3.8-2.1Z"/>
      <path class="st0" d="M94.1,27.6c.5,0,1,0,1.3-.4,2-1.8-1.8-5.6-3.9-4.8-1.2.5-1,2.1-.6,3.1.6,1.2,1.8,2,3.1,2.1h0Z"/>
      <path class="st1" d="M125.1,48.5c-3.2-5-7.7-8.9-12.8-11.7.6-.8.9-1.7.8-2.9,0-1.1-.6-2.1-.6-3.2,0-2.1,1.8-4.3.6-6-.9-1.4-3.4-1.6-3.7-3.2-.2-.9.4-1.8.6-2.7.3-1.6-1.1-3.2-2.7-3.5-1.6-.3-3.3.6-4.2,2-.9,1.4-1.2,3.1-1,4.7.2,1.4.6,2.8.8,4.2.1,1.4-.1,3-1.2,3.9-.9.8-1.7,1.3-2.3,1.9-4.9-1.1-9.6-1.5-14.4-1.5-.2-1.6-1.1-3.2-2-4.6-1.5-2.4-3.3-5-2.3-7.6.7-1.9,2.7-3.3,3.2-5.2.6-2.3-1.4-4.6-4-5.3-5.3-1.3-9.6,3.7-11.9,7.1-1.2,1.7-1.4,3.1-.6,4.9.9,2.2,4.1,4.1,3.8,6.5-.2,1.9-2.7,3.2-2.8,5.1h0c-1.5,0-2.9-.1-4.3-.3.2-.5.4-1,.6-1.6.2-1,0-2.1-.3-3.2-.3-1.2-.8-2.4-1.8-3.2-.6-.4-2.5-1.1-2.9-.2-.5.9,1.8,1.5,2.3,2,.8.7,1.2,1.9.8,2.9-.2.5-.7.9-1.1,1.3-.5.4-1,.9-1.3,1.4-1.3-.2-2.5-.5-3.8-.7,0-1.5-.6-3-1.4-4.4-1-1.7-2.2-3.5-1.8-5.3.4-2,2.6-3.3,4.5-4.5,1.9-1.3,3.8-3,3.4-4.9-.3-1.8-2.7-3.1-5-2.9-2.2.1-4.2,1.4-5.4,2.9-1.4,2-1.8,4.5-4,5.9-1.7,1.1-4.2,1.4-5.6,2.8-.7.7-1,1.6-1.2,2.5-1.1,1.3-2,2.8-2.3,3.3-1,1.5-2.1,3-3.5,4.2-1.5,1.3-3.4,2.2-4.8,3.5-4.6,2.8-8.3,6.8-9.9,11.9-3.8,12.3,5.5,26.6-.4,38.1-4,7.8-13.7,11.4-17.3,19.3-2.5,5.4-1.6,11.8,1,17.2,2.6,5.3,6.7,9.8,10.8,14.1,10.3,10.8,21.5,21.5,35.8,25.9,22,6.9,41.3-6.4,43-7.6,13.7-9.1,27-26.8,24.8-42.9-.9-6.2-4-11.5-1.3-18.8,2.2-6.2,6.1-6.5,9.6-12.5,4.7-8.2,5.5-20.2.2-28.7h0ZM86,41.7c.7-1.1,2.3-1.1,3.6-.9,4.1.7,8,2.7,10.9,5.7.8.8,1.6,1.8,1.7,3,0,1.1-.7,2.4-1.9,2.5-1,0-2.1-1.4-2.8-2-2-1.5-4.4-2.7-6.8-3.4-1.3-.3-2.6-.6-3.7-1.4s-1.7-2.4-.9-3.5h0ZM27.2,68.6c.4-1.2,1-3.7,2.9-4.3.2,0,1.1-.4,1.8,0,2.1,1,.2,6.1,1.4,12.1.2,1.3,1.4,6.6,5.5,10.9,6,6.4,8.3,7.9,8.3,7.9.4.3,1.8,1.1,2.1,2.6.2,1.1,0,2.5-.9,3.1-.2.2-1.3.8-5-.9-3.7-1.8-6.1-4.2-6.6-4.7-2.2-2.2-5.3-5.5-7.7-11-1.3-3-3.9-9.2-1.9-15.7h0ZM59.8,137.8c-5.2,0-10.2-.8-14.9-2.3-4.7-1.5-8.7-3.6-11.9-6.3-4.9-4.1-7.3-8.3-7.3-12.5s.9-4.9,2.7-6.7c1.8-1.8,4.1-2.7,6.9-2.7s2.9.3,4.2,1c1.3.7,2.8,1.9,4.5,3.8,2.6,2.8,5.2,4.7,7.7,5.9s5.5,1.7,8.8,1.7c5.6,0,9.7-1,12.4-3.1,2.7-2.1,4.1-4.6,4.1-7.6s-1.2-4.1-3.5-5.6c-2.4-1.4-6.1-3.1-11.2-5.1-5.5-2.1-10-4.1-13.5-6-3.5-1.9-6.5-4.5-9.1-7.8s-3.8-7.4-3.8-12.2,1.4-9.7,4.3-14,7-7.7,12.4-10.2c5.4-2.5,11.7-3.8,19.1-3.8s9.6.8,14,2.3c4.5,1.5,8.2,3.6,11.4,6.3,4.5,3.9,6.8,7.9,6.8,12s-.9,4.9-2.7,6.8c-1.8,1.8-4.1,2.7-6.9,2.7s-3-.4-4.3-1.1-2.8-2-4.7-4c-2.4-2.6-4.7-4.4-6.9-5.5-2.3-1-4.9-1.6-7.9-1.6s-7.2.9-9.7,2.7c-2.5,1.8-3.7,4-3.7,6.8s1.2,4.2,3.6,5.6c2.4,1.5,6.2,3.2,11.3,5.1,5.4,2,9.8,4,13.4,5.8s6.6,4.4,9.1,7.8c2.5,3.3,3.8,7.4,3.8,12.3s-1.5,10.3-4.5,14.8c-3,4.5-7.4,8-13.2,10.7-5.8,2.6-12.7,4-20.7,4ZM96,135.1c-1.9,2.1-6,3.9-6.6-.3-.4-2.9,1.7-4.2,3.5-5.8,5.1-4.4,7.3-12.1,7.2-18.6,0-.9,0-1.8.1-2.7s.8-1.7,1.7-1.9c.9-.2,1.8.3,2.4,1s.8,1.7.9,2.5c1.7,9.3-2.9,18.8-9.2,25.8ZM109.7,72.2c-1.2,1.1-3.4,1.3-4.3,0-.5-.8-.4-1.8-.1-2.7.3-.9.8-1.7,1.2-2.6,1-2.5.4-5.4-.9-7.6-.7-1.1-1.5-2.1-1.9-3.3-.3-1.2,0-2.8,1.2-3.3,1.1-.5,2.3.2,3.2.9,2.7,2.2,4.2,5.6,4.2,9,0,2.7-.6,7.6-2.7,9.6h0Z"/>
    </g>
  </g>
</svg>